<mxfile host="app.diagrams.net" modified="2023-12-21T12:10:10.568Z" agent="Mozilla/5.0 (X11; Linux x86_64) AppleWebKit/537.36 (KHTML, like Gecko) Chrome/120.0.0.0 Safari/537.36" etag="UB0NbT8yfOBCQOJCjtB1" version="22.1.11" type="device">
  <diagram name="Страница — 1" id="VvfM2XbaljayhL7I3Ev9">
    <mxGraphModel dx="750" dy="565" grid="1" gridSize="10" guides="1" tooltips="1" connect="1" arrows="1" fold="1" page="1" pageScale="1" pageWidth="827" pageHeight="1169" math="0" shadow="0">
      <root>
        <mxCell id="0" />
        <mxCell id="1" parent="0" />
        <mxCell id="qDq7HGr7AO61uRz5Rlk5-1" value="Microcontroller" style="rounded=0;whiteSpace=wrap;html=1;" vertex="1" parent="1">
          <mxGeometry x="180" y="230" width="150" height="80" as="geometry" />
        </mxCell>
        <mxCell id="qDq7HGr7AO61uRz5Rlk5-3" style="edgeStyle=orthogonalEdgeStyle;rounded=0;orthogonalLoop=1;jettySize=auto;html=1;entryX=0.46;entryY=-0.012;entryDx=0;entryDy=0;entryPerimeter=0;strokeWidth=2;startArrow=classic;startFill=0;" edge="1" parent="1" source="qDq7HGr7AO61uRz5Rlk5-2" target="qDq7HGr7AO61uRz5Rlk5-1">
          <mxGeometry relative="1" as="geometry">
            <mxPoint x="250" y="110" as="targetPoint" />
          </mxGeometry>
        </mxCell>
        <mxCell id="qDq7HGr7AO61uRz5Rlk5-2" value="WT588D-16P" style="rounded=0;whiteSpace=wrap;html=1;" vertex="1" parent="1">
          <mxGeometry x="354" y="80" width="120" height="60" as="geometry" />
        </mxCell>
        <mxCell id="qDq7HGr7AO61uRz5Rlk5-4" value="SPI" style="rounded=0;whiteSpace=wrap;html=1;strokeColor=none;" vertex="1" parent="1">
          <mxGeometry x="250" y="80" width="30" height="20" as="geometry" />
        </mxCell>
        <mxCell id="qDq7HGr7AO61uRz5Rlk5-7" style="edgeStyle=orthogonalEdgeStyle;rounded=0;orthogonalLoop=1;jettySize=auto;html=1;exitX=0.5;exitY=0;exitDx=0;exitDy=0;entryX=1;entryY=0.5;entryDx=0;entryDy=0;endArrow=none;endFill=0;startArrow=classic;startFill=0;" edge="1" parent="1" source="qDq7HGr7AO61uRz5Rlk5-6" target="qDq7HGr7AO61uRz5Rlk5-2">
          <mxGeometry relative="1" as="geometry">
            <mxPoint x="560" y="110" as="targetPoint" />
          </mxGeometry>
        </mxCell>
        <mxCell id="qDq7HGr7AO61uRz5Rlk5-11" style="edgeStyle=orthogonalEdgeStyle;rounded=0;orthogonalLoop=1;jettySize=auto;html=1;exitX=0.5;exitY=1;exitDx=0;exitDy=0;entryX=0.5;entryY=0;entryDx=0;entryDy=0;" edge="1" parent="1" source="qDq7HGr7AO61uRz5Rlk5-6" target="qDq7HGr7AO61uRz5Rlk5-10">
          <mxGeometry relative="1" as="geometry" />
        </mxCell>
        <mxCell id="qDq7HGr7AO61uRz5Rlk5-6" value="Electronic potentiometr &lt;br&gt;(signal conditioner)" style="rounded=0;whiteSpace=wrap;html=1;" vertex="1" parent="1">
          <mxGeometry x="500" y="180" width="120" height="60" as="geometry" />
        </mxCell>
        <mxCell id="qDq7HGr7AO61uRz5Rlk5-8" value="DAC output" style="rounded=0;whiteSpace=wrap;html=1;strokeColor=none;" vertex="1" parent="1">
          <mxGeometry x="540" y="80" width="30" height="20" as="geometry" />
        </mxCell>
        <mxCell id="qDq7HGr7AO61uRz5Rlk5-13" style="edgeStyle=orthogonalEdgeStyle;rounded=0;orthogonalLoop=1;jettySize=auto;html=1;exitX=0.5;exitY=1;exitDx=0;exitDy=0;" edge="1" parent="1" source="qDq7HGr7AO61uRz5Rlk5-10" target="qDq7HGr7AO61uRz5Rlk5-12">
          <mxGeometry relative="1" as="geometry" />
        </mxCell>
        <mxCell id="qDq7HGr7AO61uRz5Rlk5-10" value="Fullwave&amp;nbsp;&lt;br&gt;rectifier" style="rounded=0;whiteSpace=wrap;html=1;" vertex="1" parent="1">
          <mxGeometry x="500" y="280" width="120" height="60" as="geometry" />
        </mxCell>
        <mxCell id="qDq7HGr7AO61uRz5Rlk5-12" value="Peak detector" style="rounded=0;whiteSpace=wrap;html=1;" vertex="1" parent="1">
          <mxGeometry x="500" y="380" width="120" height="60" as="geometry" />
        </mxCell>
        <mxCell id="qDq7HGr7AO61uRz5Rlk5-16" style="edgeStyle=orthogonalEdgeStyle;rounded=0;orthogonalLoop=1;jettySize=auto;html=1;exitX=0.5;exitY=1;exitDx=0;exitDy=0;entryX=0.393;entryY=1.05;entryDx=0;entryDy=0;entryPerimeter=0;" edge="1" parent="1" source="qDq7HGr7AO61uRz5Rlk5-12" target="qDq7HGr7AO61uRz5Rlk5-1">
          <mxGeometry relative="1" as="geometry" />
        </mxCell>
        <mxCell id="qDq7HGr7AO61uRz5Rlk5-17" value="ADC&lt;br&gt;input" style="rounded=0;whiteSpace=wrap;html=1;strokeColor=none;" vertex="1" parent="1">
          <mxGeometry x="250" y="330" width="30" height="20" as="geometry" />
        </mxCell>
        <mxCell id="qDq7HGr7AO61uRz5Rlk5-20" style="edgeStyle=orthogonalEdgeStyle;rounded=0;orthogonalLoop=1;jettySize=auto;html=1;exitX=1;exitY=0.5;exitDx=0;exitDy=0;entryX=0;entryY=0.5;entryDx=0;entryDy=0;" edge="1" parent="1" source="qDq7HGr7AO61uRz5Rlk5-18" target="qDq7HGr7AO61uRz5Rlk5-1">
          <mxGeometry relative="1" as="geometry" />
        </mxCell>
        <mxCell id="qDq7HGr7AO61uRz5Rlk5-18" value="Control buttons" style="rounded=0;whiteSpace=wrap;html=1;" vertex="1" parent="1">
          <mxGeometry x="20" y="240" width="120" height="60" as="geometry" />
        </mxCell>
        <mxCell id="qDq7HGr7AO61uRz5Rlk5-21" value="Display" style="rounded=0;whiteSpace=wrap;html=1;" vertex="1" parent="1">
          <mxGeometry x="20" y="340" width="120" height="60" as="geometry" />
        </mxCell>
        <mxCell id="qDq7HGr7AO61uRz5Rlk5-22" style="edgeStyle=orthogonalEdgeStyle;rounded=0;orthogonalLoop=1;jettySize=auto;html=1;entryX=0.133;entryY=1;entryDx=0;entryDy=0;entryPerimeter=0;" edge="1" parent="1" source="qDq7HGr7AO61uRz5Rlk5-21" target="qDq7HGr7AO61uRz5Rlk5-1">
          <mxGeometry relative="1" as="geometry" />
        </mxCell>
        <mxCell id="qDq7HGr7AO61uRz5Rlk5-24" style="edgeStyle=orthogonalEdgeStyle;rounded=0;orthogonalLoop=1;jettySize=auto;html=1;" edge="1" parent="1" source="qDq7HGr7AO61uRz5Rlk5-23">
          <mxGeometry relative="1" as="geometry">
            <mxPoint x="170" y="500" as="targetPoint" />
          </mxGeometry>
        </mxCell>
        <mxCell id="qDq7HGr7AO61uRz5Rlk5-25" style="edgeStyle=orthogonalEdgeStyle;rounded=0;orthogonalLoop=1;jettySize=auto;html=1;exitX=0.5;exitY=0;exitDx=0;exitDy=0;" edge="1" parent="1" source="qDq7HGr7AO61uRz5Rlk5-23">
          <mxGeometry relative="1" as="geometry">
            <mxPoint x="160" y="440" as="targetPoint" />
          </mxGeometry>
        </mxCell>
        <mxCell id="qDq7HGr7AO61uRz5Rlk5-23" value="Power&lt;br&gt;supply" style="rounded=0;whiteSpace=wrap;html=1;" vertex="1" parent="1">
          <mxGeometry x="40" y="480" width="80" height="40" as="geometry" />
        </mxCell>
        <mxCell id="qDq7HGr7AO61uRz5Rlk5-26" value="+5V" style="rounded=0;whiteSpace=wrap;html=1;strokeColor=none;" vertex="1" parent="1">
          <mxGeometry x="150" y="410" width="30" height="20" as="geometry" />
        </mxCell>
        <mxCell id="qDq7HGr7AO61uRz5Rlk5-27" value="+3.3V" style="rounded=0;whiteSpace=wrap;html=1;strokeColor=none;" vertex="1" parent="1">
          <mxGeometry x="180" y="490" width="30" height="20" as="geometry" />
        </mxCell>
      </root>
    </mxGraphModel>
  </diagram>
</mxfile>
